<?xml version="1.0" standalone="no"?><!DOCTYPE svg PUBLIC "-//W3C//DTD SVG 1.1//EN" "http://www.w3.org/Graphics/SVG/1.1/DTD/svg11.dtd"><svg t="1510048154830" class="icon" style="" viewBox="0 0 1024 1024" version="1.1" xmlns="http://www.w3.org/2000/svg" p-id="10637" xmlns:xlink="http://www.w3.org/1999/xlink" width="32" height="32"><defs><style type="text/css"></style></defs><path d="M971.776 0.877714H58.806857C26.331429 0.877714 0.438857 21.065143 0.438857 55.003429v607.378285c0 27.062857 25.892571 54.125714 51.931429 54.125715h365.860571l-9.801143 107.958857h-71.241143c-25.892571 0-45.348571 33.645714-45.348571 60.708571h433.883429c6.436571-20.333714-13.019429-60.708571-38.912-60.708571h-71.241143l-9.801143-108.105143h366.006857c25.892571 0 51.785143-26.916571 51.785143-53.979429V54.857143c0-33.645714-25.892571-53.979429-51.785143-53.979429z m-6.582857 560.274286H65.243429V61.586286h899.949714v499.565714z m-653.897143-324.022857a57.782857 57.782857 0 0 0 41.252571-17.846857 62.902857 62.902857 0 0 0 0-85.869715 57.782857 57.782857 0 0 0-41.252571-17.846857 57.782857 57.782857 0 0 0-41.252571 17.846857 62.902857 62.902857 0 0 0 0 85.869715 57.782857 57.782857 0 0 0 41.252571 17.846857z m479.085714 81.042286H544.329143v175.542857h246.052571v-175.542857z m0-175.542858H544.329143v20.187429h246.052571V142.628571z m0 40.521143H544.329143v20.187429h246.052571v-20.187429z m-304.274285 135.021715H240.054857v20.187428h246.052572v-20.187428z m0 40.521142H240.054857v20.187429h246.052572v-20.187429z m0 33.645715H240.054857v20.333714h246.052572v-20.333714z m0 40.521143H240.054857v20.333714h246.052572v-20.333714z m0 40.521142H240.054857v20.187429h246.052572v-20.187429z" p-id="10638"></path></svg>