<?xml version="1.0" standalone="no"?><!DOCTYPE svg PUBLIC "-//W3C//DTD SVG 1.1//EN" "http://www.w3.org/Graphics/SVG/1.1/DTD/svg11.dtd"><svg t="1510727111244" class="icon" style="" viewBox="0 0 1024 1024" version="1.1" xmlns="http://www.w3.org/2000/svg" p-id="5667" xmlns:xlink="http://www.w3.org/1999/xlink" width="32" height="32"><defs><style type="text/css"></style></defs><path d="M561.728 497.92a249.92 249.92 0 0 0 5.312-358.016A183.68 183.68 0 0 1 632.192 128c103.424 0 187.328 85.952 187.328 192s-83.84 192-187.328 192a182.4 182.4 0 0 1-70.464-14.08zM650.688 576h67.392C851.712 576 960 686.976 960 824v16c0 43.392-70.08 53.248-166.976 55.424a43.136 43.136 0 0 0 6.976-24.256v-20.8A323.84 323.84 0 0 0 650.688 576zM376.192 128c103.424 0 187.328 85.952 187.328 192s-83.84 192-187.328 192C272.768 512 188.864 426.048 188.864 320s83.904-192 187.328-192zM305.92 576h156.096c133.632 0 241.92 110.976 241.92 248v16c0 53.952-108.352 56.064-241.92 56.064H305.92C172.288 896.064 64 896 64 840v-16C64 687.04 172.288 576 305.92 576z" p-id="5668"></path></svg>