<?xml version="1.0" standalone="no"?><!DOCTYPE svg PUBLIC "-//W3C//DTD SVG 1.1//EN" "http://www.w3.org/Graphics/SVG/1.1/DTD/svg11.dtd"><svg t="1508041501921" class="icon" style="" viewBox="0 0 1024 1024" version="1.1" xmlns="http://www.w3.org/2000/svg" p-id="837" xmlns:xlink="http://www.w3.org/1999/xlink" width="200" height="200"><defs><style type="text/css"></style></defs><path d="M 948.3 959.466 H 74.243 c -36.773 0 -66.6283 -29.8553 -66.6283 -66.6283 V 288.692 c 0 -36.773 29.8553 -66.6283 66.6283 -66.6283 h 874.055 c 36.773 0 66.6283 29.8553 66.6283 66.6283 v 604.145 c 0 36.8944 -29.8553 66.6283 -66.6283 66.6283 Z" fill="#ffe5cf" p-id="838"></path><path d="M 1014.93 456.052 V 288.692 c 0 -36.773 -29.8553 -66.6283 -66.6283 -66.6283 H 74.243 c -36.773 0 -66.6283 29.8553 -66.6283 66.6283 v 167.359 h 1007.31 Z" fill="#f75e5e" p-id="839"></path><path d="M 244.637 366.365 h -9.46631 c -18.6899 0 -34.1029 -15.2917 -34.1029 -34.1029 V 101.55 c 0 -18.6899 15.2917 -34.1029 34.1029 -34.1029 h 9.46631 c 18.6899 0 34.1029 15.2917 34.1029 34.1029 V 332.383 c 0 18.6899 -15.4131 33.9817 -34.1029 33.9817 Z M 787.493 366.365 h -9.46631 c -18.6899 0 -34.1029 -15.2917 -34.1029 -34.1029 V 101.55 c 0 -18.6899 15.2917 -34.1029 34.1029 -34.1029 h 9.46631 c 18.6899 0 34.1029 15.2917 34.1029 34.1029 V 332.383 c -0.121363 18.6899 -15.4131 33.9817 -34.1029 33.9817 Z" fill="#ff8882" p-id="840"></path><path d="M 746.716 629.479 c 0 -73.7887 -59.832 -133.62 -133.62 -133.62 c -40.7779 0 -77.3083 18.2045 -101.823 46.9675 c -24.5153 -28.763 -61.0455 -46.9675 -101.823 -46.9675 c -73.7887 0 -133.62 59.832 -133.62 133.62 c 0 38.7148 17.8403 71.1187 42.8411 98.0613 l 193.089 185.564 l 189.812 -183.622 c 24.0299 -25.0007 45.147 -60.1961 45.147 -100.003 Z" fill="#f75e5e" p-id="841"></path><path d="M 443.916 758.245 V 622.683 c -13.8354 12.1363 -31.9184 20.9957 -54.6133 26.4571 v -16.5054 c 26.4571 -12.6218 44.6615 -30.3408 54.6133 -52.9142 h 28.8844 v 178.525 h -28.8844 Z M 582.755 758.245 v -38.8362 h -85.1968 v -19.054 l 85.925 -120.635 h 27.3067 v 120.635 h 22.3308 v 19.054 h -22.3308 v 38.8362 h -28.0349 Z m 0 -139.689 l -57.8901 81.7986 h 57.8901 v -81.7986 Z" fill="#ffffff" p-id="842"></path></svg>