<?xml version="1.0" standalone="no"?><!DOCTYPE svg PUBLIC "-//W3C//DTD SVG 1.1//EN" "http://www.w3.org/Graphics/SVG/1.1/DTD/svg11.dtd"><svg t="1508041107281" class="icon" style="" viewBox="0 0 1024 1024" version="1.1" xmlns="http://www.w3.org/2000/svg" p-id="1576" xmlns:xlink="http://www.w3.org/1999/xlink" width="200" height="200"><defs><style type="text/css"></style></defs><path d="M129.307 348.729l-53.662 82.848 99.451 61.857c0 0 66.156 33.941 34.733 97.375-29.822 60.178-174.474 191.803-174.474 191.803l129.817 80.938c89.543-194.575 83.882-168.57 106.487-238.569 23.117-71.425 28.014-125.873-11.169-165.162-50.56-50.736-56.031-55.392-131.182-111.091z" p-id="1577" fill="#dbdbdb"></path><path d="M462.95 243.771c20.519-35.675 30.433-58.906 30.433-58.906l-119.742-33.587c0 0-48.294 157.554-134.423 231.062 0 0 83.302 48.066 82.34 46.667 23.98-23.868 45.315-48.143 64.080-71.73 19.033-8.321 37.519-16.182 55.481-23.509-22.085 39.87-57.949 99.588-93.734 137.247l50.442 44.123c0 0 34.348-32.978 71.922-72.851h42.837v73.484h-167.073v58.804h167.072v140.988c-2.103-0.103-4.215-0.103-6.286-0.23-18.463-0.94-47.178-4.019-58.383-21.65-13.679-21.58-3.676-61.245-2.98-85.47h-115.070l-4.251 2.112c0 0-42.022 189.054 121.867 184.829 153.457 4.147 241.418-42.673 283.607-75.139l16.788 62.569 94.659-39.26-63.932-156.921-76.945 23.921 14.43 53.788c-19.833 14.655-42.633 25.699-66.961 33.814v-123.353h162.926v-58.804h-162.927v-73.484h163.585v-58.829h-290.679c20.914-25.418 37.406-48.775 41.756-63.687l-50.546-13.714c217.207-77.759 338.308-64.4 337.151 63.051v336.099c0 0 13.006 115.568-119.358 107.147l-71.402-15.37-16.794 67.889c0 0 308.77 88.214 333.999-149.21 25.229-237.371-6.295-388.614-6.295-388.614s-27.899-219.102-507.594-83.278z" p-id="1578" fill="#dbdbdb"></path><path d="M200.289 317.787c47.173 0 85.441-37.962 85.441-84.806 0-46.791-38.269-84.807-85.441-84.807-47.177 0-85.434 38.016-85.434 84.807 0 46.845 38.256 84.806 85.434 84.806z" p-id="1579" fill="#dbdbdb"></path></svg>