<?xml version="1.0" standalone="no"?><!DOCTYPE svg PUBLIC "-//W3C//DTD SVG 1.1//EN" "http://www.w3.org/Graphics/SVG/1.1/DTD/svg11.dtd"><svg t="1510726284710" class="icon" style="" viewBox="0 0 1024 1024" version="1.1" xmlns="http://www.w3.org/2000/svg" p-id="3875" xmlns:xlink="http://www.w3.org/1999/xlink" width="32" height="32"><defs><style type="text/css"></style></defs><path d="M876.032 769.024c5.12 34.816 34.816 29.696 39.936 45.056 0 9.728-5.12 45.056-19.968 49.664-14.848 0-34.816-5.12-49.664 0-9.728 5.12-19.968 9.728-25.088 19.968-9.728 25.088 9.728 45.056 0 54.784-14.848 9.728-45.056 25.088-54.784 14.848-14.848-14.848-14.848-34.816-45.056-34.816-39.936 0-39.936 39.936-59.904 39.936s-54.784-14.848-54.784-29.696c5.12-19.968 14.848-34.816-5.12-54.784-25.088-19.968-54.784 0-65.024-9.728-14.848-9.728-19.968-34.816-14.848-49.664 5.12-14.848 39.936-14.848 39.936-54.784 0-29.696-34.816-34.816-39.936-54.784-5.12-14.848 5.12-39.936 19.968-45.056 25.088-9.728 39.936 9.728 65.024-9.728 14.848-14.848 9.728-49.664 9.728-59.904 5.12-14.848 25.088-19.968 39.936-19.968 29.696 0 19.968 34.816 59.904 39.936 39.936 0 34.816-14.848 54.784-39.936 25.088 0 45.056 9.728 49.664 19.968 9.728 19.968-9.728 49.664 19.968 69.632 25.088 14.848 49.664-5.12 65.024 0 9.728 5.12 14.848 19.968 19.968 39.936-9.728 29.184-54.784 24.064-49.664 69.12zM696.32 669.184c-119.808 29.696-74.752 204.288 39.936 184.832 115.2-25.088 99.84-209.92-39.936-184.832z m-204.288-174.592c-119.808 0-214.528-94.72-214.528-214.528s94.72-214.528 214.528-214.528S706.56 160.256 706.56 280.064c0 114.688-94.72 214.528-214.528 214.528z m174.592 49.664s-79.872 0-74.752 54.784c5.12 59.904-74.752 14.848-89.6 65.024-19.968 59.904 9.728 49.664 25.088 89.6 9.728 25.088-39.936 39.936-34.816 84.992 9.728 59.904 59.904 29.696 74.752 65.024 9.728 29.696-25.088 49.664-104.96 49.664-65.024 0-189.44 0-234.496-5.12 0 0-129.536-5.12-129.536-89.6 0 0-5.12-124.928 74.752-214.528 0 0 84.992-109.568 229.376-109.568l264.192 9.728z" p-id="3876"></path></svg>